<svg width="78" height="78" viewBox="0 0 78 78" fill="none" xmlns="http://www.w3.org/2000/svg">
<g clip-path="url(#clip0_17_5761)">
<path fill-rule="evenodd" clip-rule="evenodd" d="M39.0005 2.63574C59.1099 2.63574 75.3799 18.9058 75.3799 38.9847C75.3799 59.0633 59.1099 75.3637 39.0005 75.3637C18.8911 75.3637 2.62109 59.094 2.62109 39.0148C2.62109 18.9362 18.8911 2.63574 39.0005 2.63574Z" fill="#1E1E1E"/>
<path fill-rule="evenodd" clip-rule="evenodd" d="M39 77.9539C17.4891 77.9539 0 60.4953 0 39.0148C0 17.5045 17.4891 0.0458984 39 0.0458984C60.5109 0.0458984 78 17.5045 78 38.9847C78 60.4651 60.5109 77.9539 39 77.9539ZM71.8755 44.3164C70.7484 43.9508 61.5773 41.2393 51.1263 42.8847C55.4836 54.8281 57.2505 64.5784 57.5859 66.5887C65.0813 61.5617 70.413 53.5792 71.8755 44.3164ZM52.0102 69.6664C51.5227 66.7414 49.5724 56.5648 44.9106 44.4386C44.85 44.469 44.7586 44.4992 44.6977 44.4992C25.8984 51.0503 19.1648 64.0601 18.5558 65.2789C24.1922 69.6664 31.2914 72.2867 39 72.2867C43.6008 72.3172 48.0184 71.3726 52.0102 69.6664ZM14.2597 61.2878C15.0211 60.0078 24.1617 44.8956 41.3461 39.3198C41.7727 39.1675 42.2297 39.0456 42.6562 38.9234C41.8336 37.0347 40.9195 35.1456 39.9445 33.287C23.3089 38.2534 7.16016 38.0401 5.69766 38.0094C5.69766 38.3448 5.66749 38.68 5.66749 39.0148C5.69766 47.5769 8.92765 55.3765 14.2597 61.2878ZM6.39874 32.2206C7.89141 32.2511 21.6023 32.312 37.2023 28.1683C31.6875 18.3576 25.7156 10.1308 24.8628 8.94277C15.5086 13.3303 8.56202 21.9222 6.39874 32.2206ZM31.2 6.68778C32.1141 7.90684 38.1773 16.1334 43.6313 26.1573C55.4836 21.7092 60.4805 15.0058 61.0895 14.1526C55.2094 8.94277 47.47 5.77372 39 5.77372C36.3188 5.77372 33.6984 6.10918 31.2 6.68778ZM64.7763 17.992C64.0758 18.9362 58.5 26.0964 46.1903 31.1237C46.9523 32.7084 47.7141 34.3229 48.4148 35.9378C48.6583 36.5167 48.9023 37.0953 49.1461 37.6437C60.2367 36.2425 71.2356 38.4972 72.3325 38.7104C72.2411 30.8803 69.438 23.6589 64.7763 17.992Z" fill="#A5A5A5"/>
</g>
<defs>
<clipPath id="clip0_17_5761">
<rect width="78" height="78" fill="white"/>
</clipPath>
</defs>
</svg>
