<svg width="152" height="61" viewBox="0 0 152 61" fill="none" xmlns="http://www.w3.org/2000/svg">
<path d="M29.369 38.304H37.0319C36.5161 41.7088 34.5088 44.3283 31.4242 46.2547C28.3338 48.184 24.3859 49.1437 19.5913 49.1437C13.5486 49.1437 8.75693 47.7385 5.22211 44.6652C1.67902 41.5859 0.0238858 37.1364 0.000249423 31.5777C-0.0511597 19.6573 7.8493 13.5414 19.2066 13.4185C32.0902 13.279 38.7462 20.5366 38.144 33.1454L7.64484 33.1714C8.11698 40.2056 12.4501 44.206 19.6308 44.206C23.5273 44.206 27.7003 42.7087 29.369 38.304ZM7.8493 28.0872H30.2388C29.6125 21.4596 25.7237 18.5275 19.2858 18.3224C13.8429 18.1481 8.36516 21.6398 7.8493 28.0872Z" fill="#A5A5A5"/>
<path d="M45.3784 47.8873H37.959L38.1847 41.1834V0H45.7862V19.1413C48.5634 15.7046 53.4402 13.4314 58.3713 13.4314C63.7398 13.4314 68.3607 14.3733 72.3605 18.3489C75.7104 21.6787 77.414 26.4361 77.4518 31.2024C77.4997 37.3 75.2199 41.7501 71.4298 44.9889C67.6403 48.2265 63.0307 49.5075 57.7733 49.0815C52.5663 48.6608 48.6544 46.4904 45.6491 43.2268L45.3784 47.8873ZM45.6538 30.8395C45.8843 37.921 49.3293 43.8478 57.1446 44.028C60.4454 44.1037 63.4254 43.0341 65.8286 40.7757C68.2259 38.5225 69.5661 35.532 69.5661 31.0641C69.5661 26.4946 68.1367 23.842 65.8357 21.6704C63.5347 19.4976 60.7474 18.4062 57.4879 18.4062C50.6399 18.4062 45.4334 24.0577 45.6538 30.8395Z" fill="#A5A5A5"/>
<path d="M105.693 43.1889C101.674 48.1224 96.6705 49.0626 90.9121 49.0797C84.7731 49.0974 77.4517 46.5246 76.6759 38.8919C76.5033 37.1918 77.1651 34.3986 78.0881 33.0324C81.1691 28.4724 87.9628 27.5151 92.9584 27.2947C98.3965 27.0542 102.578 27.0465 105.146 27.0128C105.145 26.2198 105.139 25.3092 105.139 25.1006C105.139 20.4537 100.884 18.3696 95.9637 18.3696C90.9989 18.3696 87.5675 19.9012 87.1834 23.4756H79.1748C80.0376 18.6071 82.4225 16.1029 87.4162 14.5499C89.9967 13.7481 92.9855 13.2564 96.3904 13.3409C105.572 13.5684 112.708 16.5691 112.708 26.2541V33.9802C112.708 35.5952 112.484 45.5419 112.952 47.9729H105.987C105.628 45.9834 105.788 44.7791 105.693 43.1889ZM105.108 32.0663C100.004 32.0013 93.1581 31.7413 88.1277 33.3208C83.8986 34.6491 83.4353 39.8739 86.6681 42.4598C91.4179 46.2593 100.898 44.4878 103.839 38.9769C105.103 36.6121 105.108 34.6716 105.108 32.0663Z" fill="#A5A5A5"/>
<path fill-rule="evenodd" clip-rule="evenodd" d="M130.426 40.6722L117.37 14.697H108.578L126.217 47.8872L119.475 60.6154H127.881L151.272 14.697H143.331L130.426 40.6722Z" fill="#A5A5A5"/>
</svg>
