<svg width="152" height="50" viewBox="0 0 152 50" fill="none" xmlns="http://www.w3.org/2000/svg">
<path fill-rule="evenodd" clip-rule="evenodd" d="M37.1912 17.5157H19.5402V22.7535H32.0592C31.4405 30.0985 25.3293 33.231 19.5615 33.231C12.1816 33.231 5.74186 27.4247 5.74186 19.2861C5.74186 11.3579 11.8808 5.25259 19.5774 5.25259C25.516 5.25259 29.0154 9.03795 29.0154 9.03795L32.682 5.24018C32.682 5.24018 27.9754 2.83803e-08 19.3901 2.83803e-08C8.45827 -0.000590881 0 9.22645 0 19.1927C0 28.9581 7.95541 38.4812 19.669 38.4812C29.9703 38.4806 37.5109 31.424 37.5109 20.9885C37.5109 18.7868 37.1912 17.5145 37.1912 17.5145V17.5157Z" fill="#A5A5A5"/>
<path fill-rule="evenodd" clip-rule="evenodd" d="M51.7232 18.5805C55.2852 18.5805 58.6605 21.46 58.6605 26.0998C58.6605 30.6422 55.2994 33.6032 51.7072 33.6032C47.76 33.6032 44.6453 30.4424 44.6453 26.0644C44.6453 21.7797 47.7204 18.5805 51.7232 18.5805ZM51.6511 13.7227C44.4083 13.7227 39.2178 19.3847 39.2178 25.9893C39.2178 32.6902 44.2529 38.4581 51.7362 38.4581C58.511 38.4581 64.062 33.28 64.062 26.1329C64.062 17.9412 57.6051 13.7227 51.6511 13.7227Z" fill="#A5A5A5"/>
<path fill-rule="evenodd" clip-rule="evenodd" d="M78.7636 18.5805C82.3262 18.5805 85.7015 21.46 85.7015 26.0998C85.7015 30.6422 82.3398 33.6032 78.7477 33.6032C74.801 33.6032 71.6869 30.4424 71.6869 26.0644C71.6869 21.7797 74.762 18.5805 78.7636 18.5805ZM78.6921 13.7227C71.4499 13.7227 66.2588 19.3847 66.2588 25.9893C66.2588 32.6902 71.2933 38.4581 78.7772 38.4581C85.552 38.4581 91.1024 33.28 91.1024 26.1329C91.1024 17.9412 84.6461 13.7227 78.6921 13.7227Z" fill="#A5A5A5"/>
<path fill-rule="evenodd" clip-rule="evenodd" d="M105.696 18.584C108.956 18.584 112.303 21.3666 112.303 26.1193C112.303 30.9506 108.962 33.6132 105.624 33.6132C102.08 33.6132 98.7825 30.7355 98.7825 26.1654C98.7825 21.4168 102.207 18.584 105.696 18.584ZM105.215 13.7356C98.5668 13.7356 93.3408 19.5584 93.3408 26.0939C93.3408 33.5375 99.3994 38.4746 105.1 38.4746C108.625 38.4746 110.5 37.0753 111.884 35.4698V37.9079C111.884 42.1755 109.292 44.7311 105.382 44.7311C101.604 44.7306 99.7096 41.922 99.0514 40.3277L94.2975 42.3149C95.984 45.8799 99.3787 49.5985 105.421 49.5985C112.031 49.5985 117.069 45.4349 117.069 36.7036V14.479H111.884V16.5743C110.29 14.856 108.109 13.7356 105.215 13.7356Z" fill="#A5A5A5"/>
<path fill-rule="evenodd" clip-rule="evenodd" d="M140.342 18.463C142.602 18.463 144.228 19.6637 144.919 21.1043L133.844 25.7335C133.367 22.1497 136.762 18.463 140.342 18.463ZM140.126 13.7056C133.855 13.7056 128.59 18.6952 128.59 26.0573C128.59 33.8479 134.459 38.4682 140.728 38.4682C145.961 38.4682 149.173 35.6053 151.09 33.0401L146.814 30.1955C145.705 31.9174 143.85 33.5997 140.755 33.5997C137.279 33.5997 135.68 31.6958 134.689 29.8522L151.273 22.9704L150.412 20.9537C148.81 17.0046 145.072 13.7062 140.127 13.7062L140.126 13.7056Z" fill="#A5A5A5"/>
<path fill-rule="evenodd" clip-rule="evenodd" d="M120.683 37.7338H126.13V1.27881H120.683V37.7338Z" fill="#A5A5A5"/>
</svg>
