<svg width="152" height="46" viewBox="0 0 152 46" fill="none" xmlns="http://www.w3.org/2000/svg">
<path fill-rule="evenodd" clip-rule="evenodd" d="M18.5557 8.69824C8.30818 8.69824 0 17.0052 0 27.2528C0 37.5003 8.30818 45.8079 18.5557 45.8079C28.8033 45.8079 37.1103 37.5003 37.1103 27.2528C37.1103 17.0052 28.8033 8.69824 18.5557 8.69824ZM18.5557 18.6657C13.8125 18.6657 9.96746 22.5102 9.96746 27.2528C9.96746 31.996 13.8125 35.8411 18.5557 35.8411C23.2984 35.8411 27.1428 31.996 27.1428 27.2528C27.1428 22.5102 23.2984 18.6657 18.5557 18.6657Z" fill="#A5A5A5"/>
<path fill-rule="evenodd" clip-rule="evenodd" d="M41.0977 44.4281H51.3724V23.2658C51.3724 20.3981 53.7183 18.0522 56.586 18.0522H57.9663V8.39087H55.9732C47.7915 8.39087 41.0977 15.0847 41.0977 23.2664V44.4281Z" fill="#A5A5A5"/>
<path fill-rule="evenodd" clip-rule="evenodd" d="M81.727 24.3808C87.7738 25.7789 92.3167 31.2247 92.3167 37.6804V43.6616C92.3167 43.8666 92.312 44.0711 92.3031 44.2749H82.6553V40.5942C82.6553 35.1962 78.2395 30.7797 72.8415 30.7797H72.3812V44.1213H62.5674V0.263428H72.3812V21.1952L82.0426 9.00416H93.6965L81.6667 24.1858C80.3342 24.1858 80.7307 24.1503 81.727 24.3808Z" fill="#A5A5A5"/>
<path fill-rule="evenodd" clip-rule="evenodd" d="M107.616 8.86548V29.2702C107.616 32.636 110.371 35.3902 113.736 35.3902H114.555C117.921 35.3902 120.675 32.6354 120.675 29.2702V8.86548H130.111V30.3119C130.111 38.5433 123.377 45.2773 115.146 45.2773H113.145C104.914 45.2773 98.1797 38.5433 98.1797 30.3119V8.86548H107.616Z" fill="#A5A5A5"/>
<path fill-rule="evenodd" clip-rule="evenodd" d="M134.973 0H144.886V8.86541H151.177V18.7785H144.886V27.9287C144.886 31.681 147.668 34.8164 151.272 35.3712V44.9912H151.177C142.265 44.9912 134.973 37.6994 134.973 28.7867V0Z" fill="#A5A5A5"/>
</svg>
